<?xml version="1.0" encoding="UTF-8"?>
<svg version="1.1" xmlns="http://www.w3.org/2000/svg" width="1435" height="365">
<path d="M0 0 C6.87236555 3.73984544 11.50292326 9.05761903 16.45703125 14.99609375 C17.3783014 16.04059961 18.30293101 17.08214962 19.23046875 18.12109375 C39.86998433 41.39631734 56.480483 68.43602524 71.94921875 95.32421875 C81.6903671 112.14690571 94.12338676 120.12090705 112.45703125 125.99609375 C114.11672934 126.36255131 115.78272767 126.70352513 117.45703125 126.99609375 C128.47943211 129.11256236 136.80486144 141.06028935 142.83203125 149.68359375 C143.96144609 151.27269967 145.0916577 152.8612396 146.22265625 154.44921875 C146.76986328 155.22072266 147.31707031 155.99222656 147.88085938 156.78710938 C150.07707795 159.86508113 152.32039556 162.90329757 154.58203125 165.93359375 C155.60683594 167.30837891 155.60683594 167.30837891 156.65234375 168.7109375 C157.24789062 169.46503906 157.8434375 170.21914062 158.45703125 170.99609375 C158.87210938 171.57359375 159.2871875 172.15109375 159.71484375 172.74609375 C162.57415597 174.79761822 165.79734599 174.78308863 169.20703125 175.05859375 C170.035979 175.13746826 170.86492676 175.21634277 171.71899414 175.29760742 C178.23322512 175.86438105 184.74903024 176.14194484 191.28125 176.38671875 C193.04135165 176.45799303 194.80144274 176.52952855 196.56152344 176.60131836 C200.09447506 176.74485311 203.62652507 176.85468727 207.16113281 176.94750977 C208.82100643 177.01076585 210.48083967 177.0750931 212.140625 177.140625 C213.28648323 177.15799713 213.28648323 177.15799713 214.45549011 177.17572021 C218.401862 177.35909825 220.24407175 177.81936297 223.32006836 180.37207031 C224.02526611 181.23799805 224.73046387 182.10392578 225.45703125 182.99609375 C226.28460937 183.93324219 227.1121875 184.87039062 227.96484375 185.8359375 C228.84034847 186.86585487 229.71261257 187.89853363 230.58203125 188.93359375 C231.05576172 189.49570557 231.52949219 190.05781738 232.01757812 190.63696289 C236.84893124 196.40570701 241.48720106 202.31994306 246.10400391 208.26074219 C247.40610538 209.93077778 248.71663519 211.59370975 250.03125 213.25390625 C262.34832304 228.81609891 274.32069206 244.62719599 285.86279297 260.77246094 C287.51286773 263.0739741 289.17287147 265.36801534 290.8359375 267.66015625 C291.68248901 268.82768433 291.68248901 268.82768433 292.54614258 270.01879883 C293.59856969 271.46973428 294.65170526 272.92015633 295.70581055 274.36987305 C303.29483203 284.8523259 310.55389774 295.56909026 317.81420898 306.28051758 C319.02179091 308.06192718 320.23055623 309.84252944 321.43945312 311.62304688 C323.7835987 315.07739272 326.12142585 318.53596971 328.45703125 321.99609375 C328.84977234 322.57687683 329.24251343 323.15765991 329.64715576 323.75604248 C330.7829173 325.43722325 331.91497315 327.12090567 333.046875 328.8046875 C333.70421631 329.78107178 334.36155762 330.75745605 335.03881836 331.76342773 C336.45703125 333.99609375 336.45703125 333.99609375 336.45703125 334.99609375 C324.84346302 335.85635806 314.72673651 330.00916176 305.94580078 322.74609375 C301.98150795 319.30345132 298.21347471 315.66235769 294.45703125 311.99609375 C293.83183594 311.3913623 293.20664062 310.78663086 292.5625 310.16357422 C284.65061868 302.49150694 277.24237929 294.698005 270.45703125 285.99609375 C269.52950957 284.84460624 268.59967883 283.69497616 267.66796875 282.546875 C260.36606051 273.53374983 253.32998402 264.33989135 246.45703125 254.99609375 C245.69519531 253.96097656 244.93335938 252.92585937 244.1484375 251.859375 C243.03275391 250.31830078 243.03275391 250.31830078 241.89453125 248.74609375 C241.3219458 247.95634155 241.3219458 247.95634155 240.73779297 247.15063477 C238.110143 243.46916101 235.61554688 239.71539352 233.16944885 235.91064453 C231.52866742 233.36431648 229.86840001 230.83091568 228.20779419 228.29748535 C227.38218758 227.02590815 226.56592771 225.74820706 225.75973511 224.4642334 C220.8520156 216.65416487 216.90077988 211.18336558 207.45703125 208.99609375 C205.82701172 208.49529297 205.82701172 208.49529297 204.1640625 207.984375 C195.90442972 206.05601269 187.91196629 205.33522669 179.45703125 204.99609375 C179.79847168 205.61315186 180.13991211 206.23020996 180.49169922 206.8659668 C186.65382158 218.03520065 192.72102571 229.22630123 198.20703125 240.74609375 C198.62452637 241.61967529 199.04202148 242.49325684 199.47216797 243.39331055 C202.39674972 249.61838588 203.59132574 254.0127803 203.45703125 260.99609375 C199.10379781 260.54820371 196.74493656 257.68316241 193.84375 254.7109375 C193.31111038 254.17642471 192.77847076 253.64191193 192.22969055 253.09120178 C191.10248486 251.95727752 189.97888097 250.81976305 188.85864258 249.67895508 C187.16786203 247.95734988 185.46696187 246.24632988 183.76367188 244.53710938 C178.6699141 239.40659706 173.6669155 234.2449961 168.96704102 228.74682617 C166.43110045 225.80661117 163.74572829 223.00757756 161.08203125 220.18359375 C156.35849036 215.13412786 151.82049875 209.99616338 147.52734375 204.5703125 C146.13718995 202.84180051 144.69235018 201.15600296 143.19921875 199.515625 C137.1655547 192.71423667 135.07877238 186.75919663 135.59082031 177.60400391 C135.68314941 176.3072876 135.68314941 176.3072876 135.77734375 174.984375 C136.80635498 164.48285702 136.80635498 164.48285702 132.96875 155.08203125 C128.05722835 149.77111114 121.45575707 143.68096198 113.95703125 143.30859375 C107.75238297 143.4291624 103.49129793 146.76105314 98.6328125 150.24609375 C94.87936141 152.31441612 92.6834844 152.45474036 88.45703125 151.99609375 C76.9432752 148.15109404 69.7779377 133.78398856 64.08203125 123.99609375 C63.4362915 122.90377441 62.79055176 121.81145508 62.12524414 120.68603516 C57.89633613 113.51603043 53.73824473 106.30502653 49.58154297 99.09301758 C30.65515878 60.37759533 30.65515878 60.37759533 0.45703125 33.99609375 C-2.74742369 40.27148468 -3.578132 45.3692277 -2.02734375 52.30078125 C1.13220794 61.74846033 8.40335178 69.21483079 14.7421875 76.69140625 C30.92869558 96.09026565 39.43186372 126.65033068 41.14453125 151.55859375 C41.19319336 152.26250244 41.24185547 152.96641113 41.29199219 153.69165039 C41.58141772 158.7473208 41.58141772 158.7473208 40.45703125 160.99609375 C25.4555664 156.45019531 15.13929175 135.79209222 6.75 123.71484375 C-3.9398515 106.40322458 -3.9398515 106.40322458 -19.54296875 94.99609375 C-21.51801135 104.62442644 -20.2502484 114.09698251 -19.05371094 123.74267578 C-18.79452964 125.8583523 -18.5551858 127.97568693 -18.31640625 130.09375 C-16.27262804 147.29305367 -10.40112227 159.14127603 2.57421875 170.828125 C5.14438955 172.76097703 7.62955323 174.19068519 10.44140625 175.7265625 C15.71388858 178.84682203 18.03955402 182.14968162 20.83203125 187.49609375 C21.83230538 189.27639195 22.84070457 191.05213983 23.85546875 192.82421875 C24.41331055 193.79939453 24.97115234 194.77457031 25.54589844 195.77929688 C29.28950816 202.0804979 33.37983016 208.15741433 37.45703125 214.24609375 C38.10954361 215.22190903 38.10954361 215.22190903 38.77523804 216.21743774 C45.36077741 226.04785671 52.09152202 235.72848639 59.45703125 244.99609375 C60.21628906 245.95386719 60.97554687 246.91164062 61.7578125 247.8984375 C63.96026326 250.62509501 66.19768678 253.31640612 68.45703125 255.99609375 C68.93172852 256.56102539 69.40642578 257.12595703 69.89550781 257.70800781 C76.99666478 266.19548041 76.99666478 266.19548041 84.64453125 274.18359375 C87.45703125 276.99609375 87.45703125 276.99609375 88.45703125 279.99609375 C62.15345417 279.37117075 40.01243258 265.15302688 22.1328125 246.97265625 C21.61630127 246.44752441 21.09979004 245.92239258 20.56762695 245.38134766 C19.45703125 243.99609375 19.45703125 243.99609375 19.45703125 241.99609375 C18.79703125 241.99609375 18.13703125 241.99609375 17.45703125 241.99609375 C16.85890625 241.23296875 16.26078125 240.46984375 15.64453125 239.68359375 C13.41634062 236.94610241 11.49381677 235.7077365 8.45703125 233.99609375 C12.72548033 249.17957691 19.5087461 263.06276055 26.52636719 277.12011719 C28.13252947 280.33832364 29.72036204 283.56514685 31.30201721 286.79545593 C37.7313718 299.92008483 44.35122727 312.87039784 51.65527344 325.53686523 C57.95680574 336.49600927 63.7016246 347.74294273 69.45703125 358.99609375 C66.45703125 358.99609375 66.45703125 358.99609375 64.703125 357.5 C64.10628906 356.85933594 63.50945313 356.21867187 62.89453125 355.55859375 C60.45413696 352.90647745 60.45413696 352.90647745 57.45703125 350.99609375 C57.45703125 350.33609375 57.45703125 349.67609375 57.45703125 348.99609375 C56.9053125 348.77308594 56.35359375 348.55007813 55.78515625 348.3203125 C52.72646365 346.58055278 50.64965005 344.33844893 48.20703125 341.80859375 C43.79436479 337.30416364 39.26175369 333.07636064 34.45703125 328.99609375 C33.47605469 328.13757813 32.49507813 327.2790625 31.484375 326.39453125 C-2.87179737 295.42048201 -2.87179737 295.42048201 -45.54296875 280.99609375 C-50.27450196 281.4880301 -54.54626173 282.8457995 -58.15625 286.08984375 C-61.34699446 290.47599388 -62.85350331 295.89031988 -64.54296875 300.99609375 C-73.45788984 300.26753408 -80.44183057 292.61922934 -86.10546875 286.12109375 C-86.63527344 285.48042969 -87.16507812 284.83976562 -87.7109375 284.1796875 C-90.02046839 281.42696305 -92.47105033 278.81324879 -94.91796875 276.18359375 C-99.20839475 271.53909286 -103.27169467 266.75850356 -107.23828125 261.83203125 C-109.75090894 258.74022158 -112.32933199 255.71162173 -114.91796875 252.68359375 C-118.71928962 248.22563893 -122.38886441 243.68688331 -125.98046875 239.05859375 C-130.23322853 233.58183178 -134.65674054 228.28497494 -139.19628906 223.04418945 C-142.27049619 219.49282933 -145.27635277 215.89892238 -148.23046875 212.24609375 C-151.9423362 207.65724662 -155.8578689 203.30068761 -159.890625 198.9921875 C-161.54296875 196.99609375 -161.54296875 196.99609375 -161.54296875 194.99609375 C-162.20296875 194.99609375 -162.86296875 194.99609375 -163.54296875 194.99609375 C-164.91796875 193.5625 -164.91796875 193.5625 -166.54296875 191.55859375 C-172.43546926 184.65945774 -178.69616018 177.76072143 -187.54296875 174.99609375 C-188.20296875 174.99609375 -188.86296875 174.99609375 -189.54296875 174.99609375 C-190.52219735 182.66830228 -187.54565527 187.95320768 -184.07348633 194.67880249 C-182.42115026 197.88747035 -180.82747817 201.12489355 -179.234375 204.36328125 C-178.91465729 205.01175522 -178.59493958 205.66022919 -178.26553345 206.32835388 C-173.71690149 215.63142931 -170.07009657 225.26841003 -166.54296875 234.99609375 C-166.25486328 235.76888672 -165.96675781 236.54167969 -165.66992188 237.33789062 C-162.19757567 246.69279982 -159.68868211 256.11131201 -157.60546875 265.87109375 C-157.38149414 266.91257568 -157.15751953 267.95405762 -156.92675781 269.02709961 C-156.72920898 270.00428955 -156.53166016 270.98147949 -156.328125 271.98828125 C-156.06334351 273.29321533 -156.06334351 273.29321533 -155.79321289 274.62451172 C-155.53708578 277.05184709 -155.79287748 278.69145583 -156.54296875 280.99609375 C-156.99285156 280.196875 -157.44273437 279.39765625 -157.90625 278.57421875 C-171.16039394 255.94389683 -193.94215484 237.45799191 -219.35546875 230.12109375 C-226.21618397 228.48662924 -232.57634694 227.38841179 -239.54296875 228.99609375 C-241.36373245 235.8889849 -239.74316504 239.03663251 -236.28564453 245.09057617 C-233.65561343 249.47555797 -230.90092173 253.75659239 -228.04296875 257.99609375 C-227.43984863 258.89400635 -226.83672852 259.79191895 -226.21533203 260.71704102 C-216.44324366 275.15728412 -206.11780717 288.95499413 -194.54296875 301.99609375 C-193.25051077 303.47456904 -191.95870981 304.95361932 -190.66796875 306.43359375 C-190.13300781 307.03945313 -189.59804688 307.6453125 -189.046875 308.26953125 C-188.03834722 309.42737354 -187.0461619 310.59964159 -186.0703125 311.78515625 C-182.85327193 315.67992003 -179.40347469 318.96864489 -175.5546875 322.23828125 C-173.02975629 324.44453183 -170.70115269 326.80610539 -168.37890625 329.22265625 C-166.43071597 331.16696366 -166.43071597 331.16696366 -163.59765625 333.29296875 C-156.20262168 339.40451054 -151.9791715 349.50602553 -150.50390625 358.7890625 C-150.54296875 360.99609375 -150.54296875 360.99609375 -152.54296875 363.99609375 C-156.10719507 362.80801831 -156.5752099 361.82641268 -158.66796875 358.80859375 C-168.22801177 346.35693278 -184.49807812 342.61783274 -199.04296875 338.55859375 C-222.66720581 331.91732018 -242.75544035 319.8650174 -260.54296875 302.99609375 C-261.43886719 302.15304687 -262.33476562 301.31 -263.2578125 300.44140625 C-271.13993997 292.81354096 -278.01414166 284.5668975 -283.921875 275.31640625 C-284.31036621 274.71876465 -284.69885742 274.12112305 -285.09912109 273.50537109 C-286.16772178 271.84366704 -287.20597204 270.16255831 -288.2421875 268.48046875 C-290.41790067 265.68126085 -290.41790067 265.68126085 -294.1484375 265.0703125 C-298.15126968 264.98279373 -299.46412285 265.48440367 -302.54296875 267.99609375 C-304.25733055 269.95536438 -305.92702043 271.95489587 -307.54296875 273.99609375 C-308.5311914 275.007734 -309.52841505 276.01086241 -310.54296875 276.99609375 C-311.22101563 276.66996094 -311.8990625 276.34382813 -312.59765625 276.0078125 C-322.6007017 271.31109171 -332.25884304 267.2319089 -343.54296875 268.99609375 C-347.01996033 271.31408814 -348.0997244 272.88398247 -349.625 276.7109375 C-349.52859626 280.57167766 -349.01986093 280.98509091 -346.38671875 283.6171875 C-344.95582945 284.90844541 -343.5069742 286.1800072 -342.04296875 287.43359375 C-340.61488114 288.7019952 -339.18779098 289.97152058 -337.76171875 291.2421875 C-337.05547363 291.86456299 -336.34922852 292.48693848 -335.62158203 293.12817383 C-319.76731536 307.375413 -319.76731536 307.375413 -318.60546875 316.62109375 C-318.57453125 318.29171875 -318.57453125 318.29171875 -318.54296875 319.99609375 C-319.20296875 320.32609375 -319.86296875 320.65609375 -320.54296875 320.99609375 C-322.79014926 319.8815647 -324.89611539 318.71893673 -327.04296875 317.43359375 C-327.67444824 317.06516357 -328.30592773 316.6967334 -328.95654297 316.31713867 C-332.5637702 314.204753 -336.11864382 312.01680568 -339.66796875 309.80859375 C-350.97443715 302.96864758 -363.2516686 298.93941288 -376.54296875 300.99609375 C-384.73649166 303.37966405 -390.96413633 308.05159083 -396.609375 314.328125 C-400.06293776 317.30725893 -404.10877169 317.70674973 -408.54296875 317.99609375 C-409.77466797 317.83560547 -409.77466797 317.83560547 -411.03125 317.671875 C-414.23901551 318.08594115 -415.271948 319.49108222 -417.23242188 321.95849609 C-417.66490234 322.52777832 -418.09738281 323.09706055 -418.54296875 323.68359375 C-419.50703794 324.88138673 -420.47596855 326.07527989 -421.44921875 327.265625 C-421.95324219 327.88260254 -422.45726562 328.49958008 -422.9765625 329.13525391 C-430.71732146 338.3310246 -439.88549143 348.11026798 -451.54296875 351.99609375 C-452.93736539 352.06274751 -454.3346675 352.08147574 -455.73046875 352.05859375 C-456.98859375 352.03796875 -458.24671875 352.01734375 -459.54296875 351.99609375 C-458.08661346 347.23866646 -455.23745552 344.18476266 -451.85546875 340.68359375 C-450.76350339 339.52942064 -449.67235359 338.37447537 -448.58203125 337.21875 C-447.7936084 336.38754639 -447.7936084 336.38754639 -446.98925781 335.53955078 C-445.18265559 333.61157319 -443.44982427 331.62700852 -441.73046875 329.62109375 C-439.07825721 326.55146393 -436.27095219 323.69998851 -433.37524414 320.86108398 C-431.64823378 319.10323826 -430.05113672 317.29220948 -428.45703125 315.4140625 C-424.01575705 310.3062445 -419.22504525 305.56951664 -414.41796875 300.80859375 C-413.53753906 299.93267578 -412.65710938 299.05675781 -411.75 298.15429688 C-409.34944787 295.76641734 -406.94634191 293.38113308 -404.54296875 290.99609375 C-401.63032257 288.09210328 -398.7303435 285.1760461 -395.8359375 282.25390625 C-394.46750055 280.8762498 -393.09900978 279.49864681 -391.73046875 278.12109375 C-391.05693359 277.43917969 -390.38339844 276.75726563 -389.68945312 276.0546875 C-385.74727238 272.09364464 -381.70683475 268.32337629 -377.47387695 264.67529297 C-374.42600888 262.02473834 -371.4891261 259.25853286 -368.54296875 256.49609375 C-363.61774269 251.90402183 -358.65819766 247.37668872 -353.54296875 242.99609375 C-352.39176935 242.00278694 -351.2407449 241.00927736 -350.08984375 240.015625 C-348.82442526 238.92554148 -347.55879859 237.83569958 -346.29296875 236.74609375 C-345.6896875 236.22587646 -345.08640625 235.70565918 -344.46484375 235.16967773 C-343.88734375 234.67411377 -343.30984375 234.1785498 -342.71484375 233.66796875 C-342.20018555 233.22549805 -341.68552734 232.78302734 -341.15527344 232.32714844 C-340.62321289 231.88790039 -340.09115234 231.44865234 -339.54296875 230.99609375 C-338.73786865 230.23546631 -338.73786865 230.23546631 -337.91650391 229.45947266 C-334.31705109 227.24026671 -330.51241035 226.70598707 -326.39453125 225.91015625 C-324.5663244 225.53294858 -322.73820195 225.15533163 -320.91015625 224.77734375 C-318.03900604 224.19624258 -315.16690378 223.62088358 -312.29296875 223.05371094 C-309.51090884 222.50054724 -306.73408261 221.92536344 -303.95703125 221.34765625 C-303.10372223 221.18600983 -302.25041321 221.0243634 -301.37124634 220.8578186 C-293.30108945 219.15755096 -289.25394606 215.21228052 -284.16796875 208.74609375 C-281.37089939 205.24741836 -278.54479985 201.82083098 -275.54296875 198.49609375 C-271.87989451 194.4211946 -268.41624643 190.20787141 -264.96484375 185.953125 C-262.3397109 182.74792248 -259.66596191 179.5881586 -256.98046875 176.43359375 C-253.06987526 171.83360906 -249.24579721 167.17816992 -245.49609375 162.4453125 C-243.41420922 159.8346293 -241.29353949 157.25880445 -239.16796875 154.68359375 C-235.49360467 150.2038896 -231.93244921 145.64629637 -228.41455078 141.04370117 C-224.87391422 136.41337619 -221.28941755 131.81912447 -217.65991211 127.25805664 C-215.30991294 124.29465234 -213.02806216 121.3051575 -210.8359375 118.22265625 C-210.39765625 117.61808594 -209.959375 117.01351562 -209.5078125 116.390625 C-208.67775446 115.24072808 -207.86291731 114.07963375 -207.06640625 112.90625 C-205.02103441 110.10177109 -203.96988692 109.07172239 -200.5 108.45703125 C-197.23099313 109.05296645 -195.94762362 109.7517492 -193.54296875 111.99609375 C-192.92421875 112.55296875 -192.30546875 113.10984375 -191.66796875 113.68359375 C-186.15674227 119.68110492 -182.38911287 125.88241371 -179.10546875 133.30859375 C-172.57534974 148.45076677 -172.57534974 148.45076677 -160.54296875 158.99609375 C-156.3795751 159.65347169 -154.30709417 159.37815646 -150.54296875 157.49609375 C-144.20858608 152.21744152 -139.90586551 146.11857543 -135.59375 139.1484375 C-131.78882542 133.29972485 -127.48534018 127.81548282 -123.26123047 122.26611328 C-121.45719553 119.88277755 -119.6719725 117.48627156 -117.890625 115.0859375 C-110.4693901 105.09662806 -102.87773999 95.29655608 -94.95068359 85.70361328 C-92.94565762 83.27157172 -90.96552304 80.81944616 -88.98046875 78.37109375 C-80.97206597 68.60582016 -72.71812271 59.08113421 -64.140625 49.8125 C-61.66340665 47.12667378 -59.22420324 44.41101925 -56.79296875 41.68359375 C-53.59759293 38.11465781 -50.30586435 34.69369692 -46.85546875 31.37109375 C-45.42732562 30.00987902 -45.42732562 30.00987902 -44.54296875 27.99609375 C-43.88296875 27.99609375 -43.22296875 27.99609375 -42.54296875 27.99609375 C-42.17171875 27.13757812 -42.17171875 27.13757812 -41.79296875 26.26171875 C-40.34980676 23.64598764 -38.66080653 21.84835919 -36.54296875 19.74609375 C-35.84171875 19.0396875 -35.14046875 18.33328125 -34.41796875 17.60546875 C-32.54296875 15.99609375 -32.54296875 15.99609375 -30.54296875 15.99609375 C-30.29546875 15.37734375 -30.04796875 14.75859375 -29.79296875 14.12109375 C-28.33668236 11.64540688 -27.16484369 11.04484373 -24.54296875 9.99609375 C-24.54296875 9.33609375 -24.54296875 8.67609375 -24.54296875 7.99609375 C-23.88296875 7.99609375 -23.22296875 7.99609375 -22.54296875 7.99609375 C-22.28515625 7.3928125 -22.02734375 6.78953125 -21.76171875 6.16796875 C-17.38720634 -1.6276367 -7.77080644 -3.06773772 0 0 Z " fill="#000000" transform="translate(459.54296875,1.00390625)"/>
<path d="M0 0 C1.37478516 0.01740234 1.37478516 0.01740234 2.77734375 0.03515625 C3.69644531 0.04417969 4.61554688 0.05320312 5.5625 0.0625 C6.27277344 0.07410156 6.98304687 0.08570312 7.71484375 0.09765625 C8.04484375 1.41765625 8.37484375 2.73765625 8.71484375 4.09765625 C9.14796875 3.62328125 9.58109375 3.14890625 10.02734375 2.66015625 C13.67037878 -0.71302434 18.30223802 -0.24215413 22.98828125 -0.16796875 C26.99042989 0.22192539 28.8727862 1.2555987 31.71484375 4.09765625 C36.80605464 11.21577555 36.63365887 19.68910579 35.71484375 28.09765625 C34.17698221 33.57474603 31.49840923 36.9505737 26.71484375 40.09765625 C24.16357607 41.37329009 22.25162289 41.3013892 19.40234375 41.34765625 C18.45746094 41.3734375 17.51257812 41.39921875 16.5390625 41.42578125 C13.71484375 41.09765625 13.71484375 41.09765625 8.71484375 38.09765625 C8.38484375 44.03765625 8.05484375 49.97765625 7.71484375 56.09765625 C4.08484375 56.09765625 0.45484375 56.09765625 -3.28515625 56.09765625 C-3.30979581 48.28312411 -3.3279873 40.46861437 -3.34008789 32.65405273 C-3.34513008 29.99324144 -3.35196361 27.33243293 -3.3605957 24.67163086 C-3.37266634 20.85660109 -3.37838554 17.04160781 -3.3828125 13.2265625 C-3.38797379 12.02866592 -3.39313507 10.83076935 -3.39845276 9.59657288 C-3.39852829 8.49550705 -3.39860382 7.39444122 -3.39868164 6.26000977 C-3.40090225 5.28516129 -3.40312286 4.31031281 -3.40541077 3.30592346 C-3.2401845 0.27182738 -3.03999047 0.12991412 0 0 Z M8.71484375 13.09765625 C7.16757369 16.54925868 7.45843258 20.37969429 7.71484375 24.09765625 C9.29208677 28.0783172 10.12485286 29.70432899 13.71484375 32.09765625 C16.67253552 32.59776149 16.67253552 32.59776149 19.71484375 32.09765625 C22.01759931 30.23055715 23.39308246 28.74117884 24.71484375 26.09765625 C24.83692246 24.30906114 24.89032823 22.51537244 24.90234375 20.72265625 C24.91652344 19.76617187 24.93070313 18.8096875 24.9453125 17.82421875 C24.70694022 15.00415342 24.26936066 13.44234288 22.71484375 11.09765625 C17.22342767 7.43671219 13.2128554 8.47112998 8.71484375 13.09765625 Z " fill="#000000" transform="translate(1342.28515625,118.90234375)"/>
<path d="M0 0 C11.88 0 23.76 0 36 0 C36 2.97 36 5.94 36 9 C28.08 9 20.16 9 12 9 C12 12.63 12 16.26 12 20 C18.93 20 25.86 20 33 20 C33 23.3 33 26.6 33 30 C26.07 30 19.14 30 12 30 C12 34.29 12 38.58 12 43 C19.92 43 27.84 43 36 43 C36 45.97 36 48.94 36 52 C24.12 52 12.24 52 0 52 C0 34.84 0 17.68 0 0 Z " fill="#000000" transform="translate(929,107)"/>
<path d="M0 0 C0.99 0.66 1.98 1.32 3 2 C2.46930939 5.82097239 1.50298434 8.06171403 -1 11 C-3.89842756 10.33918469 -6.54888742 9.39732838 -9.3125 8.3125 C-13.9657135 6.71006886 -16.49160318 7.17745661 -21 9 C-21.77242269 10.83700789 -21.77242269 10.83700789 -22 13 C-19.24039283 17.08674649 -14.20630201 17.38191855 -9.71289062 18.37304688 C-4.18510951 19.69550902 0.03152656 21.83467922 3.875 26.0625 C6.05591394 31.75710862 5.75505379 37.69289119 3.875 43.4375 C0.97615106 47.39926021 -2.38046747 49.46015582 -7 51 C-16.6874123 51.64008315 -24.72743598 51.64570031 -32.5 45.3125 C-33.325 44.549375 -34.15 43.78625 -35 43 C-34.42636089 39.12793601 -32.65894107 36.81534937 -30 34 C-27 34 -27 34 -24.5 36.4375 C-23.2625 37.7059375 -23.2625 37.7059375 -22 39 C-19.07831111 39.9738963 -16.98970526 40.19605823 -13.9375 40.25 C-13.05964844 40.27578125 -12.18179688 40.3015625 -11.27734375 40.328125 C-10.52582031 40.21984375 -9.77429688 40.1115625 -9 40 C-6.78382114 37.25394157 -6.78382114 37.25394157 -6.9375 34.5 C-7.82115292 31.71621236 -7.82115292 31.71621236 -10.875 30.375 C-14.04498174 29.19851193 -17.28181084 28.43062626 -20.5625 27.625 C-25.62600255 26.2826154 -28.46938423 24.89273021 -32 21 C-34.54734241 16.12682321 -34.54568934 11.20653251 -33 6 C-30.71275581 2.06623801 -28.41899368 -0.40793031 -24.19140625 -2.171875 C-15.88924768 -4.32616829 -7.69062657 -3.70289427 0 0 Z " fill="#000000" transform="translate(994,211)"/>
<path d="M0 0 C2.57132566 2.57132566 3.31415567 4.69412269 4.1875 8.1875 C-1.3125 12.1875 -1.3125 12.1875 -5.8125 12.1875 C-6.05613281 11.56617187 -6.29976562 10.94484375 -6.55078125 10.3046875 C-8.49216605 7.04700774 -10.91329173 6.62872861 -14.4296875 5.60546875 C-18.15073827 4.95275984 -20.44381694 5.53618477 -23.8125 7.1875 C-28.70979305 13.11580211 -29.46668137 18.72983236 -28.8125 26.1875 C-27.93248456 30.58757718 -26.94986449 34.0835874 -23.6875 37.25 C-18.62876292 38.89958818 -12.8738035 38.98096189 -7.8125 37.1875 C-6.56535597 34.77797977 -6.56535597 34.77797977 -5.8125 32.1875 C-5.3175 31.1975 -5.3175 31.1975 -4.8125 30.1875 C-1.09361761 30.69462033 1.92204239 31.30358215 5.1875 33.1875 C3.68457329 38.44774347 2.02324079 43.19879866 -2.6171875 46.453125 C-9.73693083 50.15643472 -17.7065432 50.47350104 -25.43359375 48.52734375 C-32.26858598 45.86480883 -36.15717997 41.4266874 -39.44140625 35 C-42.60847603 27.27771003 -42.03941393 17.40305043 -39.74609375 9.5234375 C-36.83511659 3.1303923 -33.42444924 -1.17575101 -26.8125 -3.8125 C-17.33988298 -6.87658119 -8.12754522 -5.23775136 0 0 Z " fill="#000000" transform="translate(1251.8125,110.8125)"/>
<path d="M0 0 C4.33125 -0.061875 8.6625 -0.12375 13.125 -0.1875 C14.47996582 -0.21481201 15.83493164 -0.24212402 17.23095703 -0.27026367 C18.85300049 -0.28150269 18.85300049 -0.28150269 20.5078125 -0.29296875 C21.60754395 -0.3086792 22.70727539 -0.32438965 23.84033203 -0.34057617 C28.40395552 0.15133039 31.66171989 1.95911547 35.25 4.75 C38.5681298 9.01616689 39.23353371 13.35330705 38.8125 18.625 C38.00683109 24.01748852 36.45144935 26.88825156 32.0625 30.25 C25.36031173 34.07982187 18.58294838 33.07021249 11 33 C11 39.27 11 45.54 11 52 C7.37 52 3.74 52 0 52 C0 34.84 0 17.68 0 0 Z M11 9 C11 13.95 11 18.9 11 24 C12.8975 24.0825 14.795 24.165 16.75 24.25 C18.35101562 24.31960937 18.35101562 24.31960937 19.984375 24.390625 C23.08700031 24.24356822 23.08700031 24.24356822 25.359375 22.203125 C27.74088203 19.00510128 27.5548473 16.8839311 27 13 C25.4283718 10.6778208 25.4283718 10.6778208 23 9 C19.95559865 8.51804725 19.95559865 8.51804725 16.75 8.75 C14.8525 8.8325 12.955 8.915 11 9 Z " fill="#000000" transform="translate(1154,209)"/>
<path d="M0 0 C3.89014966 3.09217025 5.74950265 6.6441755 7.1875 11.4375 C7.50657148 14.62821482 7.56071991 17.73378238 7.4375 20.9375 C6.4375 21.9375 6.4375 21.9375 4.02905273 22.05102539 C2.98692627 22.04578857 1.9447998 22.04055176 0.87109375 22.03515625 C-0.25361328 22.03193359 -1.37832031 22.02871094 -2.53710938 22.02539062 C-3.72111328 22.01701172 -4.90511719 22.00863281 -6.125 22 C-7.31287109 21.99548828 -8.50074219 21.99097656 -9.72460938 21.98632812 C-12.67062226 21.97449675 -15.61653681 21.95801287 -18.5625 21.9375 C-17.9025 24.2475 -17.2425 26.5575 -16.5625 28.9375 C-9.7914471 30.36405316 -9.7914471 30.36405316 -3.6875 27.9375 C-2.98625 27.2775 -2.285 26.6175 -1.5625 25.9375 C1.42962986 26.1188412 3.81386139 27.53197931 6.4375 28.9375 C6.21331061 32.86081434 5.47797908 33.89878088 2.5625 36.6875 C-3.36151624 40.95279169 -9.49667326 40.50611091 -16.5625 39.9375 C-21.58565127 38.75558205 -24.67485874 36.37624963 -27.5625 32.125 C-30.9556486 25.17767202 -30.84567916 16.71178669 -28.86328125 9.3359375 C-26.81713988 4.72564428 -24.05819121 2.32882511 -19.5625 -0.0625 C-13.40798954 -2.11400349 -6.17474849 -1.84159166 0 0 Z M-18.5625 11.9375 C-18.5625 12.9275 -18.5625 13.9175 -18.5625 14.9375 C-13.6125 14.9375 -8.6625 14.9375 -3.5625 14.9375 C-4.04535763 10.119511 -4.04535763 10.119511 -6.375 8.125 C-11.81571241 5.17147041 -14.66817904 8.13168634 -18.5625 11.9375 Z " fill="#000000" transform="translate(1113.5625,120.0625)"/>
<path d="M0 0 C4.92971451 2.20987202 7.75792176 5.08467463 10 10 C10.32459005 14.39243632 10.18025931 18.58364697 10 23 C-2.375 23.495 -2.375 23.495 -15 24 C-13.58261912 28.79999065 -13.58261912 28.79999065 -11.25 30.3125 C-8.27013098 31.22301553 -6.10507312 31.38021303 -3 31 C-2.175 30.29875 -1.35 29.5975 -0.5 28.875 C0.325 28.25625 1.15 27.6375 2 27 C5.1875 27.5 5.1875 27.5 8 29 C9.375 31.125 9.375 31.125 10 33 C7.09704986 37.13112136 4.82371045 39.39209652 0 41 C-6.71460241 41.71785841 -13.41570951 41.97820586 -19.34765625 38.37890625 C-24.20895654 34.32207646 -26.17890181 29.7153329 -26.9375 23.5 C-27.27258282 16.14848591 -25.82570512 10.62199266 -21.609375 4.54296875 C-15.53881462 -1.27710734 -7.85094188 -0.82985015 0 0 Z M-13 10 C-15.2773501 12.81509993 -15.2773501 12.81509993 -15 16 C-10.05 16 -5.1 16 0 16 C-1.31297122 10.01461763 -1.31297122 10.01461763 -5 8 C-8.78149076 8 -9.964349 8.07742103 -13 10 Z " fill="#000000" transform="translate(1038,119)"/>
<path d="M0 0 C1.21429687 -0.02578125 2.42859375 -0.0515625 3.6796875 -0.078125 C8.34550533 0.3662386 10.86036633 1.98536633 14.125 5.25 C15.14948603 8.29659581 15.31127842 11.25569835 15.44140625 14.453125 C15.48330078 15.4328125 15.52519531 16.4125 15.56835938 17.421875 C15.60767578 18.43765625 15.64699219 19.4534375 15.6875 20.5 C15.73068359 21.53125 15.77386719 22.5625 15.81835938 23.625 C15.92425682 26.1665387 16.02633443 28.70817196 16.125 31.25 C17.445 31.58 18.765 31.91 20.125 32.25 C20.125 34.89 20.125 37.53 20.125 40.25 C12.82964363 41.61015119 12.82964363 41.61015119 9.3125 39.8125 C8.590625 39.296875 7.86875 38.78125 7.125 38.25 C4.09997035 37.9616584 4.09997035 37.9616584 2 39.75 C-2.79404927 42.2512431 -7.56359165 41.75248008 -12.75 40.625 C-15.85808878 38.61388373 -16.65239251 36.72477918 -17.875 33.25 C-18.42790766 29.37964638 -18.21951138 26.11127844 -16.75 22.4375 C-11.83312494 16.70114577 -3.91821476 15.85694706 3.125 14.25 C3.125 12.93 3.125 11.61 3.125 10.25 C-0.90248381 8.63900648 -3.9105246 9.858956 -7.875 11.25 C-10.7084743 12.76462733 -10.7084743 12.76462733 -12.875 14.25 C-16.83370206 9.93141593 -16.83370206 9.93141593 -17 7.1875 C-13.35695919 0.91337417 -6.56804351 0.08331556 0 0 Z M-1.4375 23.25 C-2.44941406 23.62125 -3.46132812 23.9925 -4.50390625 24.375 C-5.28636719 24.66375 -6.06882812 24.9525 -6.875 25.25 C-7.04181109 28.16652174 -7.04181109 28.16652174 -6.875 31.25 C-6.215 31.91 -5.555 32.57 -4.875 33.25 C-1.37239918 33.40483439 -1.37239918 33.40483439 2.125 32.25 C4.70265375 28.59139468 5.51706387 25.69339057 5.125 21.25 C2.91841906 21.25 0.59409637 22.50274616 -1.4375 23.25 Z " fill="#000000" transform="translate(1052.875,220.75)"/>
<path d="M0 0 C3.22517126 2.41887845 5.06825596 4.31763672 5.72924805 8.37988281 C5.75543213 9.3644043 5.78161621 10.34892578 5.80859375 11.36328125 C5.84404297 12.43320313 5.87949219 13.503125 5.91601562 14.60546875 C5.94985352 16.27222656 5.94985352 16.27222656 5.984375 17.97265625 C6.01853516 19.09929687 6.05269531 20.2259375 6.08789062 21.38671875 C6.17030514 24.16526526 6.23947798 26.94349877 6.296875 29.72265625 C7.616875 30.05265625 8.936875 30.38265625 10.296875 30.72265625 C10.791875 34.18765625 10.791875 34.18765625 11.296875 37.72265625 C7.50997001 40.24725958 5.79839829 39.79411376 1.4609375 39.21484375 C-1.16049905 38.61863255 -2.80517051 37.62061074 -4.703125 35.72265625 C-5.321875 36.38265625 -5.940625 37.04265625 -6.578125 37.72265625 C-10.95666923 40.52492456 -14.63169227 40.53408549 -19.703125 39.72265625 C-22.9169877 38.1157249 -24.87290919 36.77929456 -27.078125 33.97265625 C-28.36229389 29.34964824 -28.3379489 25.30971599 -26.578125 20.91015625 C-21.66124994 15.17380202 -13.74633976 14.32960331 -6.703125 12.72265625 C-6.373125 11.07265625 -6.043125 9.42265625 -5.703125 7.72265625 C-11.95714139 8.00061253 -15.50636095 9.01068193 -20.703125 12.72265625 C-23.703125 11.72265625 -23.703125 11.72265625 -25.515625 9.41015625 C-26.703125 6.72265625 -26.703125 6.72265625 -26.015625 4.6953125 C-21.05470453 -2.76083285 -7.4267057 -3.50944041 0 0 Z M-10.140625 21.09765625 C-10.94371094 21.35289062 -11.74679687 21.608125 -12.57421875 21.87109375 C-14.87059199 22.62751038 -14.87059199 22.62751038 -16.703125 24.72265625 C-16.38113534 27.82192444 -16.38113534 27.82192444 -15.703125 30.72265625 C-12.95350989 31.66873432 -12.95350989 31.66873432 -9.703125 31.72265625 C-6.6625262 29.84906755 -6.6625262 29.84906755 -4.703125 26.72265625 C-4.28481096 23.01264907 -4.28481096 23.01264907 -4.703125 19.72265625 C-6.58528855 19.72265625 -8.3663504 20.5242107 -10.140625 21.09765625 Z " fill="#000000" transform="translate(1330.703125,222.27734375)"/>
<path d="M0 0 C4.34553619 3.28474149 6.55980998 7.22019993 8.125 12.4375 C8.92959768 20.48347683 7.84044807 26.88712102 3.625 33.8125 C-1.05373423 38.23130455 -5.29623349 39.13794074 -11.5625 39.375 C-17.04122656 39.21728947 -21.2539968 38.33716916 -25.625 34.9375 C-30.63189111 29.14004714 -31.91267436 22.88385484 -31.5625 15.4375 C-30.70897892 8.36406671 -28.06728083 4.01603688 -22.6875 -0.5625 C-16.01434845 -3.82590525 -6.43994523 -3.64889955 0 0 Z M-19.625 11.9375 C-20.97816882 17.53059778 -20.85988035 21.50993343 -18.625 26.9375 C-16.35433488 29.45145067 -15.02860178 29.86880182 -11.6875 30.4375 C-8.48912371 30.13917776 -8.48912371 30.13917776 -5.8125 28 C-2.9482619 23.99006666 -2.47050257 20.80416909 -2.625 15.9375 C-3.33039894 12.47463248 -3.97404627 10.63495043 -6.375 8.0625 C-12.2400168 5.1299916 -15.90943652 6.84187009 -19.625 11.9375 Z " fill="#000000" transform="translate(1227.625,223.0625)"/>
<path d="M0 0 C4.55132892 2.77870608 6.76688051 5.9265403 8.1875 11.11328125 C9.83962627 19.23967734 9.45708272 25.25815829 5.8125 32.6875 C1.96993788 37.03566239 -1.69042094 38.99668851 -7.46875 39.7578125 C-14.00222455 40.0052926 -19.23506059 39.32554082 -24.5625 35.375 C-29.20562416 30.73187584 -30.64788702 25.9480338 -30.875 19.5 C-30.71520928 12.41594486 -28.64085022 6.45335022 -23.5625 1.375 C-17.17669691 -3.37341768 -7.12372259 -3.19431463 0 0 Z M-18.5625 11.375 C-20.44757626 15.58017011 -19.9993177 20.77333509 -18.8125 25.125 C-17.33268018 27.78867568 -16.26179184 28.95037375 -13.5625 30.375 C-9.71702292 31.02954929 -8.06142681 30.66784835 -4.6875 28.6875 C-1.36177347 23.50327923 -1.61266717 18.35741487 -2.5625 12.375 C-4.42182903 8.9268732 -4.42182903 8.9268732 -7.5625 7.375 C-12.57900224 6.43440583 -15.06165733 7.77413325 -18.5625 11.375 Z " fill="#000000" transform="translate(1291.5625,120.625)"/>
<path d="M0 0 C2.3671875 1.5234375 2.3671875 1.5234375 4 3 C3.01 5.31 2.02 7.62 1 10 C-1.97 10 -4.94 10 -8 10 C-8.66 11.98 -9.32 13.96 -10 16 C-6.37 16 -2.74 16 1 16 C1 18.97 1 21.94 1 25 C-2.63 25 -6.26 25 -10 25 C-10 35.23 -10 45.46 -10 56 C-13.63 56 -17.26 56 -21 56 C-21 45.77 -21 35.54 -21 25 C-22.65 25 -24.3 25 -26 25 C-26 22.03 -26 19.06 -26 16 C-24.35 16 -22.7 16 -21 16 C-21.061875 14.783125 -21.12375 13.56625 -21.1875 12.3125 C-21.16662738 8.37453291 -20.63481187 6.07394718 -18 3 C-12.76651265 -0.89156752 -6.27589876 -0.89156222 0 0 Z " fill="#000000" transform="translate(1100,205)"/>
<path d="M0 0 C3.04328042 1.03246106 5.25671726 2.27872455 8 4 C7.24432948 7.78630702 5.87402727 9.4041044 3 12 C2.505 11.690625 2.01 11.38125 1.5 11.0625 C-2.47191566 9.37443585 -6.68411965 9 -11 9 C-11 10.65 -11 12.3 -11 14 C-10.13117188 14.17015625 -9.26234375 14.3403125 -8.3671875 14.515625 C4.14730878 17.14730878 4.14730878 17.14730878 8 21 C10.13444818 25.25033595 10.23345199 28.17605181 8.9375 32.75 C6.58019796 36.70418407 4.09771565 38.95114217 0 41 C-7.77417131 41.68037941 -15.47685186 41.80653021 -22 37 C-23.375 34.5625 -23.375 34.5625 -23 32 C-20.5625 29.1875 -20.5625 29.1875 -18 27 C-15.50638429 28.20381448 -13.31856917 29.45428722 -11 31 C-8.94290404 31.24055468 -8.94290404 31.24055468 -6.8125 31.125 C-5.554375 31.08375 -4.29625 31.0425 -3 31 C-2.67 29.68 -2.34 28.36 -2 27 C-3.55460937 26.54560547 -3.55460937 26.54560547 -5.140625 26.08203125 C-6.5106931 25.65974999 -7.88046987 25.23652273 -9.25 24.8125 C-9.93191406 24.61591797 -10.61382813 24.41933594 -11.31640625 24.21679688 C-15.9802722 22.74518869 -18.42664986 21.1672909 -21 17 C-22.15783642 12.36865432 -22.47601332 9.16420421 -20 5 C-13.6655353 -0.70101823 -8.34329138 -0.74788526 0 0 Z " fill="#000000" transform="translate(1148,119)"/>
<path d="M0 0 C3.63 0 7.26 0 11 0 C20 20.80327869 20 20.80327869 20 27 C20.66 27 21.32 27 22 27 C22.309375 25.2984375 22.309375 25.2984375 22.625 23.5625 C23.72263452 18.5710671 25.3636024 13.81153148 27.0625 9 C27.3320752 8.23373291 27.60165039 7.46746582 27.87939453 6.67797852 C29.86724688 1.13275312 29.86724688 1.13275312 31 0 C32.85287502 -0.07226502 34.70833878 -0.0838122 36.5625 -0.0625 C37.57441406 -0.05347656 38.58632813 -0.04445313 39.62890625 -0.03515625 C40.41136719 -0.02355469 41.19382812 -0.01195313 42 0 C39.57334561 8.71206578 36.45432842 17.15344597 33.3125 25.625 C32.79594774 27.02463767 32.27966971 28.42437658 31.76367188 29.82421875 C30.51276949 33.21751736 29.25628467 36.60867127 28 40 C23.38 40 18.76 40 14 40 C12.00205913 34.6263589 10.00833735 29.25117905 8.01855469 23.87451172 C7.3406845 22.04465217 6.66165178 20.21522285 5.98144531 18.38623047 C5.00542049 15.76120743 4.03355089 13.13467888 3.0625 10.5078125 C2.75626709 9.68693146 2.45003418 8.86605042 2.13452148 8.02029419 C0 2.22774341 0 2.22774341 0 0 Z " fill="#000000" transform="translate(967,119)"/>
<path d="M0 0 C1.546875 -0.00773438 1.546875 -0.00773438 3.125 -0.015625 C5.94597278 0.24500835 7.60145718 0.79703656 10 2.25 C9.34 4.89 8.68 7.53 8 10.25 C4.7 10.25 1.4 10.25 -2 10.25 C-2.66 12.23 -3.32 14.21 -4 16.25 C-0.04 16.25 3.92 16.25 8 16.25 C8 19.22 8 22.19 8 25.25 C4.04 25.25 0.08 25.25 -4 25.25 C-4 35.48 -4 45.71 -4 56.25 C-7.3 56.25 -10.6 56.25 -14 56.25 C-14 46.02 -14 35.79 -14 25.25 C-15.98 25.25 -17.96 25.25 -20 25.25 C-20 22.28 -20 19.31 -20 16.25 C-18.35 16.25 -16.7 16.25 -15 16.25 C-15.103125 15.05375 -15.20625 13.8575 -15.3125 12.625 C-15.31842325 9.28428727 -14.8592028 7.48086524 -12.75 4.875 C-8.51905873 0.83637424 -5.84459747 -0.02922299 0 0 Z " fill="#000000" transform="translate(1123,204.75)"/>
<path d="M0 0 C0 2.97 0 5.94 0 9 C3.63 9 7.26 9 11 9 C11 11.97 11 14.94 11 18 C7.37 18 3.74 18 0 18 C0.33 24.93 0.66 31.86 1 39 C3.97 39 6.94 39 10 39 C11.83691257 42.78187881 12.15837626 44.94568308 11 49 C5.54274941 50.81908353 0.00857842 50.65735294 -5.4375 48.875 C-8.75914204 46.44453021 -9.55075112 44.88700279 -11 41 C-11.35638053 37.03329788 -11.28304203 33.1034683 -11.1875 29.125 C-11.17396484 28.05507812 -11.16042969 26.98515625 -11.14648438 25.8828125 C-11.11128624 23.25468489 -11.06204693 20.62760806 -11 18 C-12.98 18 -14.96 18 -17 18 C-17 15.03 -17 12.06 -17 9 C-15.02 9 -13.04 9 -11 9 C-11 6.36 -11 3.72 -11 1 C-7.26513121 0.4254048 -3.78706732 0 0 0 Z " fill="#000000" transform="translate(1177,110)"/>
<path d="M0 0 C0 2.97 0 5.94 0 9 C3.63 9 7.26 9 11 9 C11 11.97 11 14.94 11 18 C7.37 18 3.74 18 0 18 C0.08684744 21.10554454 0.19370554 24.20815428 0.3125 27.3125 C0.33505859 28.19357422 0.35761719 29.07464844 0.38085938 29.98242188 C0.4340332 31.25375977 0.4340332 31.25375977 0.48828125 32.55078125 C0.51446533 33.33106689 0.54064941 34.11135254 0.56762695 34.9152832 C1.10545279 37.50844797 1.8638531 38.45943425 4 40 C7.14921909 39.76716851 7.14921909 39.76716851 10 39 C10.99 41.97 11.98 44.94 13 48 C8.22404285 50.54717715 3.27604155 50.70065832 -2 50 C-5.85544798 48.00342873 -7.59805092 46.60292362 -10 43 C-10.86485101 39.66921481 -11.11979799 36.56868921 -11.09765625 33.13671875 C-11.09443359 32.25048828 -11.09121094 31.36425781 -11.08789062 30.45117188 C-11.07951172 29.53916016 -11.07113281 28.62714844 -11.0625 27.6875 C-11.05798828 26.75615234 -11.05347656 25.82480469 -11.04882812 24.86523438 C-11.03709234 22.57675627 -11.02067363 20.28841192 -11 18 C-12.98 18 -14.96 18 -17 18 C-17.09765625 11.84765625 -17.09765625 11.84765625 -17 10 C-16 9 -16 9 -13.4375 8.9375 C-12.633125 8.958125 -11.82875 8.97875 -11 9 C-11.020625 7.865625 -11.04125 6.73125 -11.0625 5.5625 C-11 2 -11 2 -10 1 C-6.62658866 0.43776478 -3.42229689 0 0 0 Z " fill="#000000" transform="translate(1019,212)"/>
<path d="M0 0 C0 2.97 0 5.94 0 9 C3.96 9 7.92 9 12 9 C12 11.97 12 14.94 12 18 C8.04 18 4.08 18 0 18 C0.14075205 20.93782469 0.2873838 23.87515171 0.4375 26.8125 C0.47681641 27.64587891 0.51613281 28.47925781 0.55664062 29.33789062 C0.59853516 30.14033203 0.64042969 30.94277344 0.68359375 31.76953125 C0.72025146 32.50792236 0.75690918 33.24631348 0.79467773 34.00708008 C0.94842141 36.207495 0.94842141 36.207495 2 39 C5.28976808 40.09658936 6.71303767 39.79953138 10 39 C13 44.625 13 44.625 13 48 C8.21361343 50.8089123 3.40301424 50.64116812 -2 50 C-6.14636673 47.96318828 -8.33652385 46.27912944 -10 42 C-10.22705078 39.34277344 -10.22705078 39.34277344 -10.1953125 36.359375 C-10.18886719 35.28945312 -10.18242188 34.21953125 -10.17578125 33.1171875 C-10.15902344 32.00601563 -10.14226562 30.89484375 -10.125 29.75 C-10.11597656 28.62335938 -10.10695313 27.49671875 -10.09765625 26.3359375 C-10.07410658 23.55707635 -10.0412168 20.7786461 -10 18 C-11.98 18 -13.96 18 -16 18 C-16 15.03 -16 12.06 -16 9 C-14.02 9 -12.04 9 -10 9 C-10 6.36 -10 3.72 -10 1 C-3.375 0 -3.375 0 0 0 Z " fill="#000000" transform="translate(1287,212)"/>
<path d="M0 0 C3.63 0 7.26 0 11 0 C10.99476318 1.32241699 10.98952637 2.64483398 10.98413086 4.00732422 C10.96606719 8.90119758 10.95456296 13.79506797 10.94506836 18.68896484 C10.94003128 20.80941259 10.93320141 22.92985685 10.92456055 25.05029297 C10.91246766 28.09343322 10.90676553 31.13652766 10.90234375 34.1796875 C10.89718246 35.13181122 10.89202118 36.08393494 10.88670349 37.06491089 C10.88662796 37.94567291 10.88655243 38.82643494 10.88647461 39.73388672 C10.88314369 40.89970779 10.88314369 40.89970779 10.87974548 42.08908081 C10.88069314 44.08651572 10.88069314 44.08651572 12 46 C14.02463255 46.65213292 14.02463255 46.65213292 16 47 C16.87890625 53.15234375 16.87890625 53.15234375 17 55 C15.35962605 56.64037395 13.50523159 56.24911331 11.25 56.3125 C7.51709524 56.28579825 6.2118116 56.12968057 2.9375 54.125 C0.08016978 50.99115395 -0.12393597 49.32651651 -0.11352539 45.18310547 C-0.11344986 44.18221893 -0.11337433 43.1813324 -0.11329651 42.15011597 C-0.10813522 41.06674957 -0.10297394 39.98338318 -0.09765625 38.8671875 C-0.0962413 37.76021515 -0.09482635 36.6532428 -0.09336853 35.51272583 C-0.08775772 31.96679007 -0.07520337 28.42091677 -0.0625 24.875 C-0.05748639 22.47526133 -0.05292325 20.07552167 -0.04882812 17.67578125 C-0.03778478 11.78382999 -0.02051286 5.8919256 0 0 Z " fill="#000000" transform="translate(1347,206)"/>
<path d="M0 0 C3.3 0 6.6 0 10 0 C10.33 1.32 10.66 2.64 11 4 C11.433125 3.525625 11.86625 3.05125 12.3125 2.5625 C14.93931586 0.1302631 17.02653965 -0.00139682 20.5625 -0.1875 C24 0 24 0 26 2 C25.7578125 4.1640625 25.7578125 4.1640625 25.125 6.625 C24.92132812 7.44226563 24.71765625 8.25953125 24.5078125 9.1015625 C24.34023437 9.72804687 24.17265625 10.35453125 24 11 C22.01432292 10.93489583 20.02864583 10.86979167 18.04296875 10.8046875 C15.68640281 10.86745538 15.68640281 10.86745538 13 13 C11.98412022 16.04763934 11.80195594 18.34718967 11.68359375 21.54296875 C11.64169922 22.61611328 11.59980469 23.68925781 11.55664062 24.79492188 C11.49766602 26.47424805 11.49766602 26.47424805 11.4375 28.1875 C11.39431641 29.31865234 11.35113281 30.44980469 11.30664062 31.61523438 C11.2005099 34.41001025 11.09974603 37.20498898 11 40 C7.37 40 3.74 40 0 40 C0 26.8 0 13.6 0 0 Z " fill="#000000" transform="translate(1244,221)"/>
<path d="M0 0 C3.3 0 6.6 0 10 0 C10.33 1.32 10.66 2.64 11 4 C11.433125 3.525625 11.86625 3.05125 12.3125 2.5625 C14.93931586 0.1302631 17.02653965 -0.00139682 20.5625 -0.1875 C24 0 24 0 26 2 C25.7578125 4.1640625 25.7578125 4.1640625 25.125 6.625 C24.92132812 7.44226563 24.71765625 8.25953125 24.5078125 9.1015625 C24.34023437 9.72804687 24.17265625 10.35453125 24 11 C22.01432292 10.93489583 20.02864583 10.86979167 18.04296875 10.8046875 C15.68640281 10.86745538 15.68640281 10.86745538 13 13 C11.98412022 16.04763934 11.80195594 18.34718967 11.68359375 21.54296875 C11.64169922 22.61611328 11.59980469 23.68925781 11.55664062 24.79492188 C11.49766602 26.47424805 11.49766602 26.47424805 11.4375 28.1875 C11.39431641 29.31865234 11.35113281 30.44980469 11.30664062 31.61523438 C11.2005099 34.41001025 11.09974603 37.20498898 11 40 C7.37 40 3.74 40 0 40 C0 26.8 0 13.6 0 0 Z " fill="#000000" transform="translate(1056,119)"/>
<path d="M0 0 C3.3 0 6.6 0 10 0 C10.33 1.32 10.66 2.64 11 4 C11.433125 3.525625 11.86625 3.05125 12.3125 2.5625 C15.75555228 -0.62551137 19.54922549 -0.1648435 24 0 C24.33 0.33 24.66 0.66 25 1 C24.94921875 3.03125 24.94921875 3.03125 24.6875 5.5 C24.56955078 6.72203125 24.56955078 6.72203125 24.44921875 7.96875 C24.30097656 8.6390625 24.15273437 9.309375 24 10 C22 11 22 11 19.125 10.8125 C15.95669437 10.72822349 15.95669437 10.72822349 13.6875 12.625 C10.07802395 17.70500333 10.7154365 24.82418566 10.4375 30.875 C10.39431641 31.75414062 10.35113281 32.63328125 10.30664062 33.5390625 C10.20130661 35.69255797 10.10022351 37.84626064 10 40 C6.7 40 3.4 40 0 40 C0 26.8 0 13.6 0 0 Z " fill="#000000" transform="translate(1309,119)"/>
</svg>
